<svg xmlns="http://www.w3.org/2000/svg" viewBox="0 0 128 128" role="img" aria-label="TimeFlow">
  <defs>
    <linearGradient id="g" x1="0%" y1="0%" x2="100%" y2="100%">
      <stop offset="0%" stop-color="#0ea5e9"/>
      <stop offset="100%" stop-color="#1e293b"/>
    </linearGradient>
  </defs>
  <rect width="128" height="128" rx="28" fill="url(#g)"/>
  <path fill="#e0f2fe" d="M34 36h60v10H34z"/>
  <path fill="#0f172a" d="M46 26h36a6 6 0 0 1 6 6v64a6 6 0 0 1-6 6H46a6 6 0 0 1-6-6V32a6 6 0 0 1 6-6Zm0 8v62h36V34H46Z"/>
  <circle cx="64" cy="76" r="20" fill="#e2e8f0" stroke="#0f172a" stroke-width="6"/>
  <path d="M64 58v18l12 8" stroke="#0ea5e9" stroke-width="6" stroke-linecap="round" stroke-linejoin="round" fill="none"/>
</svg>
